HIERARCHY
ROOT Hips
{
	OFFSET 0.000000 0.000000 0.000000 
	CHANNELS 6 Xposition Yposition Zposition Yrotation Zrotation Xrotation 
	JOINT Lumbar
	{
		OFFSET 0.000000 0.000000 0.000000 
		CHANNELS 3 Zrotation Xrotation Yrotation
		JOINT Neck
		{
			OFFSET 0.000000 0.445665 0.000000 
			CHANNELS 3 Zrotation Xrotation Yrotation
			End Site
			{
				OFFSET 0.000000 0.227535 0.000000 
			}
		}
		JOINT RightShoulder
		{
			OFFSET 0.019635 0.377685 0.194865 
			CHANNELS 3 Zrotation Xrotation Yrotation
			JOINT RightElbow
			{
				OFFSET 0.000000 -0.243375 0.000000 
				CHANNELS 2 Zrotation Yrotation
				JOINT RightWrist
				{
					OFFSET 0.000000 -0.264825 0.000000 
					CHANNELS 2 Zrotation Xrotation
					End Site
					{
						OFFSET 0.006600 -0.176220 0.000990 
					}
				}
			}
		}
		JOINT LeftShoulder
		{
			OFFSET 0.019635 0.377685 -0.194865 
			CHANNELS 3 Zrotation Xrotation Yrotation
			JOINT LeftElbow
			{
				OFFSET 0.000000 -0.243375 0.000000 
				CHANNELS 2 Zrotation Yrotation
				JOINT LeftWrist
				{
					OFFSET 0.000000 -0.264825 0.000000 
					CHANNELS 2 Zrotation Xrotation
					End Site
					{
						OFFSET 0.006600 -0.176220 -0.000990 
					}
				}
			}
		}
	}
	JOINT RightHip
	{
		OFFSET 0.052140 -0.069960 0.075570 
		CHANNELS 3 Zrotation Xrotation Yrotation
		JOINT RightKnee
		{
			OFFSET 0.000000 -0.402270 0.000000 
			CHANNELS 1 Zrotation
			JOINT RightAnkle
			{
				OFFSET 0.000000 -0.404085 0.000000 
				CHANNELS 3 Zrotation Xrotation Yrotation
				End Site
				{
					OFFSET 0.204105 -0.089430 0.008415 
				}
			}
		}
	}
	JOINT LeftHip
	{
		OFFSET 0.052140 -0.069960 -0.075570 
		CHANNELS 3 Zrotation Xrotation Yrotation
		JOINT LeftKnee
		{
			OFFSET 0.000000 -0.402270 0.000000 
			CHANNELS 1 Zrotation
			JOINT LeftAnkle
			{
				OFFSET 0.000000 -0.404085 0.000000 
				CHANNELS 3 Zrotation Xrotation Yrotation
				End Site
				{
					OFFSET 0.204105 -0.089430 -0.008415 
				}
			}
		}
	}
}
MOTION
Frames: 16
Frame Time: 0.02
0.37426 0.00315 0.05278 -175.96215 -46.90073 -4.10109 52.25062 0.92388 -4.86036 -7.11779 -2.12497 -0.83078 169.88181 -26.27519 -90.01163 126.12149 56.94804 -79.69815 -22.97209 -32.71698 13.48071 42.1701 89.43728 -61.82261 -16.24194 -1.15958 48.16758 -2.27329 -7.14133 -23.16057 -6.76448 -3.25557 -2.34355 58.74712 1.06055 7.88182 -26.1024 -7.28953 3.37374 2.43722
0.37529 0.00304 0.05352 -176.05875 -46.86021 -4.17643 52.15718 0.83922 -4.87719 -7.37779 -1.93786 -0.83078 169.88181 -26.18928 -90.01163 126.3894 56.98651 -79.69815 -22.97201 -32.60417 13.26019 42.02193 89.46912 -62.7575 -15.94927 -1.02887 48.25659 -2.27259 -7.10297 -23.25508 -6.7675 -3.26278 -2.34778 58.75383 1.0786 7.99522 -26.11421 -7.28106 3.37561 2.43362
0.37637 0.0029 0.05423 -176.13017 -46.81408 -4.22879 52.04762 0.73787 -4.92165 -7.64457 -1.7499 -0.83078 169.88181 -26.08895 -90.01163 126.64838 57.01945 -79.69815 -22.97206 -32.43346 12.95282 41.93796 89.49016 -62.31135 -16.07802 -1.11047 48.35808 -2.2749 -7.0135 -23.37727 -6.77198 -3.27861 -2.3569 58.75705 1.09392 8.15413 -26.13254 -7.27163 3.37216 2.42568
0.37743 0.00278 0.05494 -176.21264 -46.77095 -4.29136 51.94292 0.64566 -4.95883 -7.90197 -1.56719 -0.83079 169.88181 -25.99131 -90.01163 126.90762 57.0537 -79.69815 -22.97205 -32.30081 12.69098 41.81945 89.51396 -62.55373 -15.99736 -1.08746 48.45739 -2.28059 -6.96248 -23.49264 -6.77567 -3.2881 -2.3624 58.76239 1.10842 8.28297 -26.14685 -7.26304 3.3716 2.42035
0.37847 0.00263 0.05568 -176.29742 -46.72588 -4.35487 51.84777 0.54665 -4.97336 -8.1864 -1.36331 -0.83079 169.88181 -25.91013 -90.01163 127.18483 57.09373 -79.69815 -22.97205 -32.12301 12.40816 41.71513 89.54758 -62.64434 -15.95974 -1.08394 48.54203 -2.26722 -6.8512 -23.58309 -6.77979 -3.30727 -2.37347 58.76589 1.13134 8.45073 -26.16568 -7.25272 3.36921 2.41249
0.37956 0.00254 0.05637 -176.37076 -46.68338 -4.41088 51.72943 0.45791 -5.04183 -8.41622 -1.2036 -0.83079 169.88181 -25.79119 -90.01163 127.42154 57.12001 -79.69815 -22.97206 -32.02282 12.14708 41.6003 89.55789 -62.68115 -15.94544 -1.09582 48.6604 -2.29328 -6.84904 -23.73304 -6.78344 -3.30891 -2.37444 58.772 1.13597 8.54762 -26.17655 -7.24584 3.36945 2.40886
0.38079 0.00261 0.05696 -176.42341 -46.65143 -4.4528 51.54869 0.40192 -5.25188 -8.49065 -1.16569 -0.83079 169.88181 -25.57107 -90.01163 127.55143 57.11119 -79.69815 -22.97206 -32.16308 11.96209 41.43397 89.50637 -62.92419 -15.88763 -1.0999 48.86573 -2.43536 -7.19509 -24.03041 -6.78494 -3.25527 -2.34357 58.7892 1.09359 8.44972 -26.16449 -7.24784 3.37625 2.41714
0.38207 0.00274 0.0575 -176.46433 -46.62196 -4.48775 51.34578 0.35678 -5.5154 -8.51033 -1.17242 -0.83079 169.88181 -25.31329 -90.01163 127.64022 57.08833 -79.69815 -22.97206 -32.3806 11.80232 41.25715 89.43169 -63.1426 -15.84422 -1.11407 49.10492 -2.61564 -7.6468 -24.38829 -6.78601 -3.18453 -2.30284 58.80858 1.03261 8.27779 -26.14407 -7.25344 3.38609 2.42989
0.38331 0.00285 0.05806 -176.50773 -46.58999 -4.52535 51.15453 0.30652 -5.75489 -8.55695 -1.15903 -0.83079 169.88181 -25.07334 -90.01163 127.74562 57.07089 -79.69815 -22.97206 -32.5546 11.63354 41.09075 89.36761 -63.34663 -15.80194 -1.12457 49.33083 -2.77308 -8.02663 -24.72536 -6.78763 -3.1248 -2.26847 58.82495 0.97813 8.13099 -26.12704 -7.25798 3.39595 2.44119
0.38461 0.00295 0.05865 -176.56303 -46.56344 -4.56455 50.95568 0.25657 -5.99423 -8.59524 -1.1449 -0.83079 169.8818 -24.83081 -90.01163 127.85909 57.0575 -79.69815 -22.97206 -32.76271 11.45105 40.90284 89.30288 -63.61316 -15.74134 -1.13793 49.54903 -2.95328 -8.50278 -25.03619 -6.78784 -3.0519 -2.22649 58.84968 0.93108 8.01813 -26.11192 -7.26022 3.40022 2.45018
0.3858 0.00307 0.05915 -176.59017 -46.52648 -4.59876 50.76802 0.20865 -6.24618 -8.63765 -1.14293 -0.83079 169.8818 -24.58373 -90.01163 127.94661 57.03219 -79.69815 -22.97206 -32.91816 11.30475 40.75611 89.23408 -63.76022 -15.71699 -1.14551 49.79024 -3.09571 -8.80738 -25.4144 -6.79078 -3.00199 -2.19778 58.85761 0.86505 7.82087 -26.09083 -7.26789 3.4163 2.46473
0.3867 0.00326 0.05942 -176.55075 -46.45847 -4.62363 50.61323 0.16478 -6.5199 -8.70589 -1.16375 -0.83079 169.8818 -24.34335 -90.01163 127.9683 56.97936 -79.69815 -22.97207 -32.91495 11.24716 40.72933 89.16025 -63.58658 -15.79045 -1.1313 50.09448 -3.11906 -8.5837 -25.9744 -6.8021 -3.02219 -2.20963 58.81837 0.74352 7.3694 -26.05465 -7.29185 3.46971 2.49682
0.38749 0.00347 0.05959 -176.48215 -46.38024 -4.64337 50.47126 0.12251 -6.80413 -8.77986 -1.19523 -0.83079 169.8818 -24.09788 -90.01163 127.96626 56.91476 -79.69815 -22.97207 -32.85503 11.22591 40.74387 89.08317 -63.29407 -15.89928 -1.11137 50.419 -3.10391 -8.18903 -26.59762 -6.81603 -3.06566 -2.23489 58.76222 0.60491 6.84214 -26.01287 -7.32077 3.53399 2.53382
0.38832 0.00366 0.0598 -176.42139 -46.3078 -4.66372 50.32567 0.07879 -7.08366 -8.85056 -1.22181 -0.83079 169.88179 -23.84828 -90.01163 127.97778 56.85421 -79.69815 -22.97208 -32.818 11.1925 40.73621 89.00717 -63.06755 -15.98696 -1.09417 50.72934 -3.11017 -7.89211 -27.1854 -6.82825 -3.09676 -2.25297 58.71398 0.47919 6.37577 -25.97405 -7.34595 3.58966 2.56638
0.3892 0.00388 0.06003 -176.38243 -46.23055 -4.69089 50.16968 0.03824 -7.36559 -8.92243 -1.25032 -0.83079 169.88179 -23.62466 -90.01163 127.97569 56.79838 -79.69815 -22.97208 -32.79693 11.14391 40.7407 88.93167 -62.81144 -16.09005 -1.07343 51.06267 -3.10197 -7.51549 -27.80533 -6.84264 -3.13468 -2.2752 58.66483 0.33137 5.79732 -25.93313 -7.37742 3.66062 2.60822
0.38994 0.00405 0.06019 -176.2921 -46.16094 -4.70298 50.03903 -0.00836 -7.64325 -8.99359 -1.27662 -0.83079 169.88179 -23.34605 -90.01163 127.99743 56.73047 -79.69815 -22.97209 -32.72674 11.13229 40.73226 88.85512 -62.5608 -16.17768 -1.06287 51.35141 -3.11333 -7.26132 -28.37037 -6.85318 -3.16435 -2.29222 58.61358 0.22552 5.4326 -25.89541 -7.39707 3.70265 2.63209
